<mxfile host="app.diagrams.net" agent="Mozilla/5.0 (Macintosh; Intel Mac OS X 10_15_7) AppleWebKit/537.36 (KHTML, like Gecko) Chrome/128.0.0.0 Safari/537.36" version="24.7.10">
  <diagram name="Page-1" id="EhBUnxy4dOV5ioTJIaVF">
    <mxGraphModel dx="2415" dy="1020" grid="1" gridSize="10" guides="1" tooltips="1" connect="1" arrows="1" fold="1" page="1" pageScale="1" pageWidth="827" pageHeight="1169" math="0" shadow="0">
      <root>
        <mxCell id="0" />
        <mxCell id="1" parent="0" />
        <mxCell id="nJCzV3HbVF4ci8BAsVIR-4" style="edgeStyle=orthogonalEdgeStyle;rounded=0;orthogonalLoop=1;jettySize=auto;html=1;entryX=0.5;entryY=0;entryDx=0;entryDy=0;" edge="1" parent="1" source="nJCzV3HbVF4ci8BAsVIR-1" target="nJCzV3HbVF4ci8BAsVIR-3">
          <mxGeometry relative="1" as="geometry" />
        </mxCell>
        <mxCell id="nJCzV3HbVF4ci8BAsVIR-1" value="LOGIN" style="rounded=0;whiteSpace=wrap;html=1;" vertex="1" parent="1">
          <mxGeometry x="410" y="60" width="120" height="60" as="geometry" />
        </mxCell>
        <mxCell id="nJCzV3HbVF4ci8BAsVIR-11" value="" style="edgeStyle=orthogonalEdgeStyle;rounded=0;orthogonalLoop=1;jettySize=auto;html=1;" edge="1" parent="1" source="nJCzV3HbVF4ci8BAsVIR-3" target="nJCzV3HbVF4ci8BAsVIR-10">
          <mxGeometry relative="1" as="geometry" />
        </mxCell>
        <mxCell id="nJCzV3HbVF4ci8BAsVIR-12" value="TRUE" style="edgeLabel;html=1;align=center;verticalAlign=middle;resizable=0;points=[];" vertex="1" connectable="0" parent="nJCzV3HbVF4ci8BAsVIR-11">
          <mxGeometry x="-0.1" y="-4" relative="1" as="geometry">
            <mxPoint as="offset" />
          </mxGeometry>
        </mxCell>
        <mxCell id="nJCzV3HbVF4ci8BAsVIR-14" value="" style="edgeStyle=orthogonalEdgeStyle;rounded=0;orthogonalLoop=1;jettySize=auto;html=1;" edge="1" parent="1" source="nJCzV3HbVF4ci8BAsVIR-3">
          <mxGeometry relative="1" as="geometry">
            <mxPoint x="290" y="235" as="targetPoint" />
          </mxGeometry>
        </mxCell>
        <mxCell id="nJCzV3HbVF4ci8BAsVIR-15" value="FALSE" style="edgeLabel;html=1;align=center;verticalAlign=middle;resizable=0;points=[];" vertex="1" connectable="0" parent="nJCzV3HbVF4ci8BAsVIR-14">
          <mxGeometry x="-0.22" y="1" relative="1" as="geometry">
            <mxPoint as="offset" />
          </mxGeometry>
        </mxCell>
        <mxCell id="nJCzV3HbVF4ci8BAsVIR-3" value="IF USER = SUPERADMIN" style="rhombus;whiteSpace=wrap;html=1;" vertex="1" parent="1">
          <mxGeometry x="390" y="170" width="160" height="130" as="geometry" />
        </mxCell>
        <mxCell id="nJCzV3HbVF4ci8BAsVIR-10" value="OPEN SUPERADMIN PANEL" style="whiteSpace=wrap;html=1;" vertex="1" parent="1">
          <mxGeometry x="650" y="205" width="120" height="60" as="geometry" />
        </mxCell>
        <mxCell id="nJCzV3HbVF4ci8BAsVIR-19" value="" style="edgeStyle=orthogonalEdgeStyle;rounded=0;orthogonalLoop=1;jettySize=auto;html=1;" edge="1" parent="1" source="nJCzV3HbVF4ci8BAsVIR-17" target="nJCzV3HbVF4ci8BAsVIR-18">
          <mxGeometry relative="1" as="geometry" />
        </mxCell>
        <mxCell id="nJCzV3HbVF4ci8BAsVIR-17" value="IF USER = WG_ADMIN" style="rhombus;whiteSpace=wrap;html=1;" vertex="1" parent="1">
          <mxGeometry x="130" y="170" width="160" height="130" as="geometry" />
        </mxCell>
        <mxCell id="nJCzV3HbVF4ci8BAsVIR-18" value="" style="whiteSpace=wrap;html=1;" vertex="1" parent="1">
          <mxGeometry x="-90" y="205" width="120" height="60" as="geometry" />
        </mxCell>
      </root>
    </mxGraphModel>
  </diagram>
</mxfile>
